<svg id="instagram_icon" xmlns="http://www.w3.org/2000/svg" xmlns:xlink="http://www.w3.org/1999/xlink" width="24" height="24" viewBox="0 0 24 24">
  <defs>
    <clipPath id="clip-path">
      <rect id="Rectángulo_6" data-name="Rectángulo 6" width="24" height="24" fill="#fff"/>
    </clipPath>
  </defs>
  <g id="instagram_icon-2" data-name="instagram_icon" clip-path="url(#clip-path)">
    <path id="Trazado_257" data-name="Trazado 257" d="M26.667,18c-2.354,0-2.649.01-3.574.052a6.36,6.36,0,0,0-2.1.4,4.433,4.433,0,0,0-2.536,2.534,6.331,6.331,0,0,0-.4,2.1c-.041.924-.052,1.22-.052,3.574s.01,2.648.052,3.573a6.369,6.369,0,0,0,.4,2.1,4.435,4.435,0,0,0,2.534,2.536,6.365,6.365,0,0,0,2.1.4c.924.042,1.22.052,3.573.052s2.648-.01,3.573-.052a6.369,6.369,0,0,0,2.1-.4,4.441,4.441,0,0,0,2.534-2.535,6.424,6.424,0,0,0,.4-2.1c.042-.924.052-1.219.052-3.573s-.011-2.649-.052-3.574a6.421,6.421,0,0,0-.4-2.1,4.434,4.434,0,0,0-2.535-2.535,6.38,6.38,0,0,0-2.105-.4C29.313,18.01,29.019,18,26.665,18Zm-.777,1.562h.777c2.314,0,2.588.008,3.5.05a4.8,4.8,0,0,1,1.609.3,2.872,2.872,0,0,1,1.645,1.645,4.789,4.789,0,0,1,.3,1.609c.042.914.051,1.188.051,3.5s-.009,2.587-.051,3.5a4.793,4.793,0,0,1-.3,1.609,2.874,2.874,0,0,1-1.645,1.644,4.781,4.781,0,0,1-1.609.3c-.914.042-1.188.051-3.5.051s-2.588-.009-3.5-.051a4.808,4.808,0,0,1-1.609-.3,2.871,2.871,0,0,1-1.645-1.644,4.789,4.789,0,0,1-.3-1.609c-.042-.914-.05-1.188-.05-3.5s.008-2.587.05-3.5a4.8,4.8,0,0,1,.3-1.609,2.872,2.872,0,0,1,1.645-1.645,4.788,4.788,0,0,1,1.609-.3c.8-.036,1.109-.047,2.725-.049ZM31.294,21a1.04,1.04,0,1,0,1.04,1.04A1.04,1.04,0,0,0,31.294,21Zm-4.626,1.215a4.45,4.45,0,1,0,4.45,4.451,4.451,4.451,0,0,0-4.45-4.451Zm0,1.562a2.889,2.889,0,1,1-2.889,2.889A2.889,2.889,0,0,1,26.667,23.778Z" transform="translate(-14.667 -14.667)" fill="#57423f"/>
  </g>
</svg>
