<svg id="shopping_cart" xmlns="http://www.w3.org/2000/svg" width="24" height="24" viewBox="0 0 24 24">
  <rect id="Path" width="24" height="24" fill="rgba(0,0,0,0)"/>
  <path id="Icon" d="M683,484a2,2,0,1,1,2-2A2,2,0,0,1,683,484Zm10-.01a1.99,1.99,0,1,1,2-1.99A2,2,0,0,1,693,483.99ZM694,479H683a1.978,1.978,0,0,1-1.715-.976,2,2,0,0,1-.035-1.994l1.35-2.44L679,466h-1a1,1,0,0,1,0-2h1.641a.986.986,0,0,1,.9.571L681.21,466h14.8a1,1,0,0,1,.87,1.48l-3.58,6.49a1.993,1.993,0,0,1-1.75,1.03H684.1l-1.1,2h11a1,1,0,0,1,0,2Z" transform="translate(-675 -462)" fill="#fd5353"/>
</svg>
