<svg id="twitter_icon" xmlns="http://www.w3.org/2000/svg" xmlns:xlink="http://www.w3.org/1999/xlink" width="24" height="24" viewBox="0 0 24 24">
  <defs>
    <clipPath id="clip-path">
      <rect id="Rectángulo_5" data-name="Rectángulo 5" width="24" height="24" fill="#fff"/>
    </clipPath>
  </defs>
  <g id="twitter_icon-2" data-name="twitter_icon" clip-path="url(#clip-path)">
    <path id="Trazado_245" data-name="Trazado 245" d="M546.889,587.183a12.365,12.365,0,0,0,12.45-12.45q0-.284-.012-.566a8.9,8.9,0,0,0,2.183-2.266,8.726,8.726,0,0,1-2.513.689,4.392,4.392,0,0,0,1.924-2.42,8.775,8.775,0,0,1-2.779,1.062,4.379,4.379,0,0,0-7.457,3.99,12.424,12.424,0,0,1-9.02-4.572,4.379,4.379,0,0,0,1.355,5.842,4.343,4.343,0,0,1-1.982-.547c0,.018,0,.036,0,.056a4.377,4.377,0,0,0,3.511,4.289,4.371,4.371,0,0,1-1.976.075,4.38,4.38,0,0,0,4.088,3.039,8.779,8.779,0,0,1-5.435,1.873,8.882,8.882,0,0,1-1.044-.061,12.386,12.386,0,0,0,6.708,1.966" transform="translate(-538.848 -566.516)" fill="#57423f"/>
  </g>
</svg>
