<svg id="youtube_icon" xmlns="http://www.w3.org/2000/svg" xmlns:xlink="http://www.w3.org/1999/xlink" width="24" height="24" viewBox="0 0 24 24">
  <defs>
    <clipPath id="clip-path">
      <rect id="Rectángulo_1729" data-name="Rectángulo 1729" width="24" height="24" fill="#fff" stroke="#707070" stroke-width="1"/>
    </clipPath>
  </defs>
  <g id="youtube_icon-2" data-name="youtube_icon" clip-path="url(#clip-path)">
    <g id="Grupo_3515" data-name="Grupo 3515" transform="translate(1.767 4.716)">
      <path id="Trazado_3668" data-name="Trazado 3668" d="M21.474,2.6A2.52,2.52,0,0,0,19.7.824C18.147.4,11.892.4,11.892.4S5.637.413,4.083.837A2.52,2.52,0,0,0,2.311,2.609a26.329,26.329,0,0,0-.411,4.8,25.735,25.735,0,0,0,.424,4.816A2.52,2.52,0,0,0,4.1,14c1.554.424,7.809.424,7.809.424s6.255,0,7.809-.424a2.52,2.52,0,0,0,1.772-1.772,25.661,25.661,0,0,0,.424-4.816A26.133,26.133,0,0,0,21.474,2.6Z" transform="translate(-1.9 -0.4)" fill="#57423f"/>
      <path id="Trazado_3669" data-name="Trazado 3669" d="M64.2,37.611l5.189-3.005L64.2,31.6Z" transform="translate(-56.198 -27.593)" fill="#fff"/>
    </g>
  </g>
</svg>
